<svg width="200" height="82" viewBox="0 0 200 82" fill="none" xmlns="http://www.w3.org/2000/svg">
<path d="M34.7518 18.616C34.7518 18.784 34.6958 18.924 34.5838 19.036C34.4718 19.162 34.3318 19.218 34.1638 19.218H30.6358V17.356H32.1058V9.754L30.2578 9.74L29.7958 10.51C29.6698 10.706 29.5018 10.79 29.2778 10.79C29.1798 10.79 29.0678 10.762 28.9838 10.706L27.5278 9.866L29.8658 6.044L31.8118 7.178L31.2938 8.046H34.7518V18.616ZM30.8038 15.298H28.6898V11.49H30.3838C30.6638 11.49 30.8038 11.63 30.8038 11.882V15.298ZM27.7938 11.98V14.416L26.3098 14.402V19.232H23.9298V14.402H21.9698V13.408L23.5238 11.686L21.5078 10.16L24.5738 6.212L25.8478 7.178C25.9458 7.248 26.0018 7.36 26.0018 7.5C26.0018 7.598 25.9738 7.668 25.9178 7.738L24.3638 9.628L24.8958 10.048L26.0718 8.564L27.4858 9.698L24.8958 12.848H26.0018V11.602L27.4018 11.588C27.6538 11.588 27.7938 11.714 27.7938 11.98ZM28.6618 16.852L27.1778 17.51L26.4498 15.83C26.4218 15.76 26.4078 15.704 26.4078 15.662C26.4078 15.466 26.4918 15.34 26.6738 15.27L27.7658 14.794L28.6618 16.852ZM23.7898 15.928L22.9918 17.706L21.5218 17.062L22.4738 14.878L23.5658 15.368C23.7478 15.438 23.8318 15.564 23.8318 15.746C23.8318 15.802 23.8178 15.858 23.7898 15.928ZM43.7798 18.04H37.5398V5.36H35.4198V2.54H43.2198C43.5798 2.54 43.7798 2.72 43.7798 3.1V18.04ZM53.3502 18.04H47.1102V5.36H44.9902V2.54H52.7902C53.1502 2.54 53.3502 2.72 53.3502 3.1V18.04ZM59.4205 19.58H57.1605V18.24C57.1605 18.14 57.1205 18.08 57.0205 18.08H56.2205C56.0205 18.08 55.9205 17.98 55.9205 17.8V15C55.9205 14.8 56.0205 14.7 56.2205 14.7H59.1005C59.3005 14.7 59.3805 14.8 59.3805 15V15.1C59.4005 15.12 59.4005 15.12 59.4205 15.12V15.14V19.58ZM73.8077 6.22H67.0677V8.24H72.1077C72.5877 8.24 72.9877 8.4 73.3277 8.74C73.6477 9.06 73.8077 9.46 73.8077 9.94V16.4C73.8077 16.86 73.6477 17.26 73.3277 17.6C72.9877 17.94 72.5877 18.1 72.1077 18.1H63.6677C63.1877 18.1 62.7877 17.94 62.4677 17.6C62.1277 17.26 61.9677 16.86 61.9677 16.4V4.24C61.9677 3.76 62.1277 3.36 62.4677 3.02C62.7877 2.7 63.1877 2.54 63.6677 2.54H73.8077V6.22ZM68.7077 14.7V11.64H67.0677V14.7H68.7077ZM87.9288 6.22H81.1888V8.24H86.2288C86.7088 8.24 87.1088 8.4 87.4488 8.74C87.7688 9.06 87.9288 9.46 87.9288 9.94V16.4C87.9288 16.86 87.7688 17.26 87.4488 17.6C87.1088 17.94 86.7088 18.1 86.2288 18.1H77.7888C77.3088 18.1 76.9088 17.94 76.5888 17.6C76.2488 17.26 76.0888 16.86 76.0888 16.4V4.24C76.0888 3.76 76.2488 3.36 76.5888 3.02C76.9088 2.7 77.3088 2.54 77.7888 2.54H87.9288V6.22ZM82.8288 14.7V11.64H81.1888V14.7H82.8288ZM97.5298 18.04H91.2898V5.36H89.1698V2.54H96.9698C97.3298 2.54 97.5298 2.72 97.5298 3.1V18.04ZM122.576 18.224L121.722 19.246C121.582 19.414 121.4 19.484 121.176 19.484C120.994 19.484 120.84 19.428 120.7 19.316L119.076 17.86L119.902 17.034H117.788L118.572 17.86L117.116 19.302C116.99 19.428 116.822 19.484 116.598 19.484C116.374 19.484 116.192 19.414 116.038 19.26L115.17 18.294L116.556 17.034H115.912V8.844L117.76 8.83V8.172H115.744V6.478H122.366V8.172H120.322V8.816L121.75 8.802C122.002 8.802 122.142 8.928 122.142 9.194V17.034H121.19L122.576 18.224ZM119.874 11V10.398H118.236V11H119.874ZM119.874 13.184V12.582H118.236V13.198L119.874 13.184ZM119.874 15.424V14.794H118.236V15.424H119.874ZM115.31 8.494H108.856V6.702H115.31V8.494ZM115.016 9.558V13.702H109.164V9.166H114.624C114.89 9.166 115.016 9.306 115.016 9.558ZM112.72 10.86H111.516V12.008H112.72V10.86ZM114.89 14.71L114.792 16.306L112.622 16.18L112.748 14.206L114.526 14.276C114.792 14.29 114.918 14.43 114.89 14.71ZM111.586 16.236H109.43V14.262H111.194C111.46 14.262 111.586 14.402 111.586 14.668V16.236ZM115.254 17.846C115.254 18.014 115.212 18.154 115.086 18.28C114.974 18.392 114.834 18.462 114.68 18.462L108.898 18.686L108.828 16.894L115.212 16.656L115.254 17.846Z" fill="#5F3E1B"/>
<path d="M-4.5 81L37.0752 68.5L82.5 56L111 49L169.5 27L201 49" stroke="#F24949" stroke-width="2"/>
</svg>
